<svg id="kity_svg_6" xmlns="http://www.w3.org/2000/svg" xmlns:xlink="http://www.w3.org/1999/xlink" version="1.1" width="835" height="289" contenteditable="true" class="loading-target" style="font-family: Arial, &quot;Microsoft Yahei&quot;,  &quot;Heiti SC&quot;; background: #3A4144 url(ui/theme/default/images/grid.png) repeat" viewBox="538 281 835 289"><defs id="kity_defs_7"><linearGradient id="kity_linearGradient_12" x1="0" y1="0" x2="0" y2="1"><stop id="kity_stop_13" offset="0" stop-color="rgb(255, 255, 255)"></stop><stop id="kity_stop_14" offset="1" stop-color="rgb(204, 204, 204)"></stop></linearGradient><marker id="kity_marker_2" orient="auto" refX="6" refY="0" viewBox="-7 -7 14 14" markerWidth="7" markerHeight="7" markerUnits="userSpaceOnUse"><path id="kity_path_3" fill="white" stroke="none" d="M6,0A6,6,0,1,1,-6,0A6,6,0,1,1,6,0"></path></marker></defs><g id="kity_g_8" transform="translate(0.5, 0.5)"><g id="minder_1" text-rendering="optimize-speed" transform="translate( 895 424 ) matrix( 1 0 0 1 0 0 )"><g id="minder_connect_group_1"><path id="kity_path_174" fill="none" stroke="white" stroke-width="2" d="M-122 0C-127,0,-127,-66,-132 -66L-200 -66" transform="translate( 0.5 0.5 )"></path><path id="kity_path_189" fill="none" stroke="white" stroke-width="2" d="M-122 0C-127,0,-127,-98,-132 -98L-200 -98" transform="translate( 0.5 0.5 )"></path><path id="kity_path_230" fill="none" stroke="white" stroke-width="2" d="M-212 126C-217,126,-217,126,-222 126L-337 126" transform="translate( 0.5 0.5 )"></path><path id="kity_path_298" fill="none" stroke="white" stroke-width="2" d="M-122 0C-127,0,-127,30,-132 30L-200 30" transform="translate( 0.5 0.5 )"></path><path id="kity_path_474" fill="none" stroke="white" stroke-width="3" marker-end="url(#kity_marker_2)" d="M72 0A130,0,0,0,1,202 0" transform="translate( 0 0 )"></path><path id="kity_path_519" fill="none" stroke="white" stroke-width="3" marker-end="url(#kity_marker_2)" d="M72 0A130,0,0,0,1,-58 0" transform="translate( 0 0 )"></path><path id="kity_path_579" fill="none" stroke="white" stroke-width="2" d="M-200 -66C-205,-66,-205,-66,-210 -66L-313 -66" transform="translate( 0.5 0.5 )"></path><path id="kity_path_580" fill="none" stroke="white" stroke-width="2" d="M-200 30C-205,30,-205,94,-210 94L-314 94" transform="translate( 0.5 0.5 )"></path><path id="kity_path_607" fill="none" stroke="white" stroke-width="2" d="M-200 30C-205,30,-205,-34,-210 -34L-314 -34" transform="translate( 0.5 0.5 )"></path><path id="kity_path_608" fill="none" stroke="white" stroke-width="2" d="M-200 30C-205,30,-205,-2,-210 -2L-302 -2" transform="translate( 0.5 0.5 )"></path><path id="kity_path_609" fill="none" stroke="white" stroke-width="2" d="M-200 30C-205,30,-205,30,-210 30L-314 30" transform="translate( 0.5 0.5 )"></path><path id="kity_path_610" fill="none" stroke="white" stroke-width="2" d="M-200 30C-205,30,-205,62,-210 62L-314 62" transform="translate( 0.5 0.5 )"></path><path id="kity_path_677" fill="none" stroke="white" stroke-width="2" d="M-122 0C-127,0,-127,126,-132 126L-212 126" transform="translate( 0.5 0.5 )"></path><path id="kity_path_755" fill="none" stroke="white" stroke-width="2" d="M268 0C273,0,273,-10,278 -10L382 -10" transform="translate( 0.5 0.5 )"></path><path id="kity_path_808" fill="none" stroke="white" stroke-width="2" d="M268 0C273,0,273,38,278 38L345 38" transform="translate( 0.5 0.5 )"></path><path id="kity_path_864" fill="none" stroke="white" stroke-width="2" d="M345 38C350,38,350,22,355 22L435 22" transform="translate( 0.5 0.5 )"></path><path id="kity_path_940" fill="none" stroke="white" stroke-width="2" d="M345 38C350,38,350,54,355 54L458 54" transform="translate( 0.5 0.5 )"></path></g><g id="kity_g_17" display="none"><path id="kity_path_18" fill="rgba(0, 255, 0, .5)" stroke="none" d="M-122,18h62v5h-62z"></path><path id="kity_path_19" fill="none" stroke="#0f0" d="M-122,18L-60,18" stroke-width="1"></path></g><g id="minder_node_80" transform="matrix( 1 0 0 1 -190 -80 )" opacity="1"><path id="kity_path_181" fill="rgba(0, 0, 0, .25)" stroke="none" d="M-1,-8h60a10,10,0,0,1,10,10v6a10,10,0,0,1,-10,10h-60a10,10,0,0,1,-10,-10v-6a10,10,0,0,1,10,-10z" display="none"></path><g id="node_expander_10" transform="translate( 54 0 )" style="cursor: pointer;"><path id="kity_path_179" fill="white" stroke="gray" d="M6,0A6,6,0,1,1,-6,0A6,6,0,1,1,6,0"></path><path id="kity_path_180" fill="none" stroke="gray" d="M-4.5,0L4.5,0"></path></g><path id="node_outline_11" fill="transparent" stroke="none" d="M-5,-11h48a5,5,0,0,1,5,5v12a5,5,0,0,1,-5,5h-48a5,5,0,0,1,-5,-5v-12a5,5,0,0,1,5,-5z"></path><g id="node_text_11" transform="translate( 0 -1.7999999999999998 )" fill="white" style="cursor: default;"><text id="kity_text_176" text-rendering="inherit" dominant-baseline="text-before-edge" dy="0" font-size="14" y="-6">物理站</text></g></g><g id="minder_node_87" transform="matrix( 1 0 0 1 -190 -112 )" opacity="1"><path id="kity_path_196" fill="rgba(0, 0, 0, .25)" stroke="none" d="M-1,-8h60a10,10,0,0,1,10,10v6a10,10,0,0,1,-10,10h-60a10,10,0,0,1,-10,-10v-6a10,10,0,0,1,10,-10z" display="none"></path><g id="node_expander_11" transform="translate( 54 0 )" style="cursor: pointer;" display="none"><path id="kity_path_194" fill="white" stroke="gray" d="M6,0A6,6,0,1,1,-6,0A6,6,0,1,1,6,0"></path><path id="kity_path_195" fill="none" stroke="gray"></path></g><path id="node_outline_12" fill="transparent" stroke="none" d="M-5,-11h48a5,5,0,0,1,5,5v12a5,5,0,0,1,-5,5h-48a5,5,0,0,1,-5,-5v-12a5,5,0,0,1,5,-5z"></path><g id="node_text_12" transform="translate( 0 -1.7999999999999998 )" fill="white" style="cursor: default;"><text id="kity_text_191" text-rendering="inherit" dominant-baseline="text-before-edge" dy="0" font-size="14" y="-6">化验站</text></g></g><g id="minder_node_113" transform="matrix( 1 0 0 1 -327 112 )" opacity="1"><path id="kity_path_278" fill="rgba(0, 0, 0, .25)" stroke="none" d="M-1,-8h123a10,10,0,0,1,10,10v6a10,10,0,0,1,-10,10h-123a10,10,0,0,1,-10,-10v-6a10,10,0,0,1,10,-10z" display="none"></path><g id="node_expander_13" transform="translate( 101 0 )" style="cursor: pointer;" display="none"><path id="kity_path_235" fill="white" stroke="gray" d="M6,0A6,6,0,1,1,-6,0A6,6,0,1,1,6,0"></path><path id="kity_path_236" fill="none" stroke="gray"></path></g><path id="node_outline_14" fill="transparent" stroke="none" d="M-5,-11h95a5,5,0,0,1,5,5v12a5,5,0,0,1,-5,5h-95a5,5,0,0,1,-5,-5v-12a5,5,0,0,1,5,-5z"></path><g id="node_text_14" transform="translate( 0 -1.7999999999999998 )" fill="white" style="cursor: default;"><text id="kity_text_232" text-rendering="inherit" dominant-baseline="text-before-edge" dy="0" font-size="14" y="-6">非常规物理指标</text></g></g><g id="minder_node_166" transform="matrix( 1 0 0 1 -190 16 )" opacity="1"><path id="kity_path_305" fill="rgba(0, 0, 0, .25)" stroke="none" d="M-1,-8h60a10,10,0,0,1,10,10v6a10,10,0,0,1,-10,10h-60a10,10,0,0,1,-10,-10v-6a10,10,0,0,1,10,-10z" display="none"></path><g id="node_expander_15" transform="translate( 54 0 )" style="cursor: pointer;"><path id="kity_path_303" fill="white" stroke="gray" d="M6,0A6,6,0,1,1,-6,0A6,6,0,1,1,6,0"></path><path id="kity_path_304" fill="none" stroke="gray" d="M-4.5,0L4.5,0"></path></g><path id="node_outline_16" fill="transparent" stroke="none" d="M-5,-11h48a5,5,0,0,1,5,5v12a5,5,0,0,1,-5,5h-48a5,5,0,0,1,-5,-5v-12a5,5,0,0,1,5,-5z"></path><g id="node_text_16" transform="translate( 0 -1.7999999999999998 )" fill="white" style="cursor: default;"><text id="kity_text_300" text-rendering="inherit" dominant-baseline="text-before-edge" dy="0" font-size="14" y="-6">检查班</text></g></g><g id="minder_node_306" transform="matrix( 1 0 0 1 219 0 )"><path id="kity_path_481" fill="rgba(0, 0, 0, .25)" stroke="none" d="M-1,-8h44a10,10,0,0,1,10,10v6a10,10,0,0,1,-10,10h-44a10,10,0,0,1,-10,-10v-6a10,10,0,0,1,10,-10z"></path><g id="node_expander_20" transform="translate( -21 0 )" style="cursor: pointer;"><path id="kity_path_479" fill="white" stroke="gray" d="M6,0A6,6,0,1,1,-6,0A6,6,0,1,1,6,0"></path><path id="kity_path_480" fill="none" stroke="gray" d="M-4.5,0L4.5,0"></path></g><path id="node_outline_21" fill="#a4c5c0" stroke="#a4c5c0" d="M-5,-13h44a10,10,0,0,1,10,10v6a10,10,0,0,1,-10,10h-44a10,10,0,0,1,-10,-10v-6a10,10,0,0,1,10,-10z"></path><g id="node_text_21" transform="translate( 0 -2.4 )" fill="#333" style="cursor: default;"><text id="kity_text_476" text-rendering="inherit" dominant-baseline="text-before-edge" dy="0" font-size="16" y="-8">机检</text></g></g><g id="minder_node_343" transform="matrix( 1 0 0 1 -107 0 )"><path id="kity_path_526" fill="rgba(0, 0, 0, .25)" stroke="none" d="M-1,-8h42a10,10,0,0,1,10,10v6a10,10,0,0,1,-10,10h-42a10,10,0,0,1,-10,-10v-6a10,10,0,0,1,10,-10z"></path><g id="node_expander_21" transform="translate( 53 0 )" style="cursor: pointer;"><path id="kity_path_524" fill="white" stroke="gray" d="M6,0A6,6,0,1,1,-6,0A6,6,0,1,1,6,0"></path><path id="kity_path_525" fill="none" stroke="gray" d="M-4.5,0L4.5,0"></path></g><path id="node_outline_22" fill="#a4c5c0" stroke="#a4c5c0" d="M-5,-13h42a10,10,0,0,1,10,10v6a10,10,0,0,1,-10,10h-42a10,10,0,0,1,-10,-10v-6a10,10,0,0,1,10,-10z"></path><g id="node_text_22" transform="translate( 0 -2.4 )" fill="#333" style="cursor: default;"><text id="kity_text_521" text-rendering="inherit" dominant-baseline="text-before-edge" dy="0" font-size="16" y="-8">工艺</text></g></g><g id="minder_node_100" transform="matrix( 1 0 0 1 -303 -80 )"><g id="node_expander_12" transform="translate( 89 0 )" style="cursor: pointer;" display="none"><path id="kity_path_215" fill="white" stroke="gray" d="M6,0A6,6,0,1,1,-6,0A6,6,0,1,1,6,0"></path><path id="kity_path_216" fill="none" stroke="gray"></path></g><path id="node_outline_13" fill="transparent" stroke="none" d="M-5,-11h83a5,5,0,0,1,5,5v12a5,5,0,0,1,-5,5h-83a5,5,0,0,1,-5,-5v-12a5,5,0,0,1,5,-5z"></path><g id="node_text_13" transform="translate( 0 -1.7999999999999998 )" fill="white" style="cursor: default;"><text id="kity_text_212" text-rendering="inherit" dominant-baseline="text-before-edge" dy="0" font-size="14" y="-6">常规物理指标</text></g></g><g id="minder_node_129" transform="matrix( 1 0 0 1 -304 80 )" opacity="1"><g id="node_expander_14" transform="translate( 90 0 )" style="cursor: pointer;" display="none"><path id="kity_path_258" fill="white" stroke="gray" d="M6,0A6,6,0,1,1,-6,0A6,6,0,1,1,6,0"></path><path id="kity_path_259" fill="none" stroke="gray"></path></g><path id="node_outline_15" fill="transparent" stroke="none" d="M-5,-11h84a5,5,0,0,1,5,5v12a5,5,0,0,1,-5,5h-84a5,5,0,0,1,-5,-5v-12a5,5,0,0,1,5,-5z"></path><g id="node_text_15" transform="translate( 0 -1.7999999999999998 )" fill="white" style="cursor: default;"><text id="kity_text_255" text-rendering="inherit" dominant-baseline="text-before-edge" dy="0" font-size="14" y="-6">质量外观指标</text></g><path id="_kity_selection" fill="rgb(27,171,255)" stroke="none" opacity="0.5" transform="translate( -0.5 -1.5 )" style="cursor: text; display: none;" d="M48,-11h2v26h-2v-26z"></path></g><g id="minder_node_188" transform="matrix( 1 0 0 1 -304 -48 )"><g id="node_expander_16" transform="translate( 90 0 )" style="cursor: pointer;" display="none"><path id="kity_path_333" fill="white" stroke="gray" d="M6,0A6,6,0,1,1,-6,0A6,6,0,1,1,6,0"></path><path id="kity_path_334" fill="none" stroke="gray"></path></g><path id="node_outline_17" fill="transparent" stroke="none" d="M-5,-11h84a5,5,0,0,1,5,5v12a5,5,0,0,1,-5,5h-84a5,5,0,0,1,-5,-5v-12a5,5,0,0,1,5,-5z"></path><g id="node_text_17" transform="translate( 0 -1.7999999999999998 )" fill="white" style="cursor: default;"><text id="kity_text_330" text-rendering="inherit" dominant-baseline="text-before-edge" dy="0" font-size="14" y="-6">机检在线抽查</text></g></g><g id="minder_node_213" transform="matrix( 1 0 0 1 -292 -16 )"><g id="node_expander_17" transform="translate( 78 0 )" style="cursor: pointer;" display="none"><path id="kity_path_365" fill="white" stroke="gray" d="M6,0A6,6,0,1,1,-6,0A6,6,0,1,1,6,0"></path><path id="kity_path_366" fill="none" stroke="gray"></path></g><path id="node_outline_18" fill="transparent" stroke="none" d="M-5,-11h72a5,5,0,0,1,5,5v12a5,5,0,0,1,-5,5h-72a5,5,0,0,1,-5,-5v-12a5,5,0,0,1,5,-5z"></path><g id="node_text_18" transform="translate( 0 -1.7999999999999998 )" fill="white" style="cursor: default;"><text id="kity_text_362" text-rendering="inherit" dominant-baseline="text-before-edge" dy="0" font-size="14" y="-6">检查班记录</text></g></g><g id="minder_node_241" transform="matrix( 1 0 0 1 -304 16 )"><g id="node_expander_18" transform="translate( 90 0 )" style="cursor: pointer;" display="none"><path id="kity_path_400" fill="white" stroke="gray" d="M6,0A6,6,0,1,1,-6,0A6,6,0,1,1,6,0"></path><path id="kity_path_401" fill="none" stroke="gray"></path></g><path id="node_outline_19" fill="transparent" stroke="none" d="M-5,-11h84a5,5,0,0,1,5,5v12a5,5,0,0,1,-5,5h-84a5,5,0,0,1,-5,-5v-12a5,5,0,0,1,5,-5z"></path><g id="node_text_19" transform="translate( 0 -1.7999999999999998 )" fill="white" style="cursor: default;"><text id="kity_text_397" text-rendering="inherit" dominant-baseline="text-before-edge" dy="0" font-size="14" y="-6">批量报废记录</text></g></g><g id="minder_node_272" transform="matrix( 1 0 0 1 -304 48 )"><g id="node_expander_19" transform="translate( 90 0 )" style="cursor: pointer;" display="none"><path id="kity_path_438" fill="white" stroke="gray" d="M6,0A6,6,0,1,1,-6,0A6,6,0,1,1,6,0"></path><path id="kity_path_439" fill="none" stroke="gray"></path></g><path id="node_outline_20" fill="transparent" stroke="none" d="M-5,-11h84a5,5,0,0,1,5,5v12a5,5,0,0,1,-5,5h-84a5,5,0,0,1,-5,-5v-12a5,5,0,0,1,5,-5z"></path><g id="node_text_20" transform="translate( 0 -1.7999999999999998 )" fill="white" style="cursor: default;"><text id="kity_text_435" text-rendering="inherit" dominant-baseline="text-before-edge" dy="0" font-size="14" y="-6">损纸误废记录</text></g></g><g id="minder_node_487" transform="matrix( 1 0 0 1 -202 112 )"><g id="node_expander_22" transform="translate( 66 0 )" style="cursor: pointer;"><path id="kity_path_682" fill="white" stroke="gray" d="M6,0A6,6,0,1,1,-6,0A6,6,0,1,1,6,0"></path><path id="kity_path_683" fill="none" stroke="gray" d="M-4.5,0L4.5,0"></path></g><path id="node_outline_23" fill="transparent" stroke="none" d="M-5,-11h60a5,5,0,0,1,5,5v12a5,5,0,0,1,-5,5h-60a5,5,0,0,1,-5,-5v-12a5,5,0,0,1,5,-5z"></path><g id="node_text_23" transform="translate( 0 -1.7999999999999998 )" fill="white" style="cursor: default;"><text id="kity_text_679" text-rendering="inherit" dominant-baseline="text-before-edge" dy="0" font-size="14" y="-6">物检中心</text></g></g><g id="minder_node_604" transform="matrix( 1 0 0 1 298 24 )"><g id="node_expander_24" transform="translate( -16 0 )" style="cursor: pointer;"><path id="kity_path_813" fill="white" stroke="gray" d="M6,0A6,6,0,1,1,-6,0A6,6,0,1,1,6,0"></path><path id="kity_path_814" fill="none" stroke="gray" d="M-4.5,0L4.5,0"></path></g><path id="node_outline_25" fill="transparent" stroke="none" d="M-5,-11h47a5,5,0,0,1,5,5v12a5,5,0,0,1,-5,5h-47a5,5,0,0,1,-5,-5v-12a5,5,0,0,1,5,-5z"></path><g id="node_text_25" transform="translate( 0 -1.7999999999999998 )" fill="white" style="cursor: default;"><text id="kity_text_810" text-rendering="inherit" dominant-baseline="text-before-edge" dy="0" font-size="14" y="-6">切纸机</text></g></g><g id="minder_node_653" transform="matrix( 1 0 0 1 375 8 )"><g id="node_expander_25" transform="translate( -16 0 )" style="cursor: pointer;" display="none"><path id="kity_path_869" fill="white" stroke="gray" d="M6,0A6,6,0,1,1,-6,0A6,6,0,1,1,6,0"></path><path id="kity_path_870" fill="none" stroke="gray"></path></g><path id="node_outline_26" fill="transparent" stroke="none" d="M-5,-11h60a5,5,0,0,1,5,5v12a5,5,0,0,1,-5,5h-60a5,5,0,0,1,-5,-5v-12a5,5,0,0,1,5,-5z"></path><g id="node_text_26" transform="translate( 0 -1.7999999999999998 )" fill="white" style="cursor: default;"><text id="kity_text_866" text-rendering="inherit" dominant-baseline="text-before-edge" dy="0" font-size="14" y="-6">机检数据</text></g></g><g id="minder_node_558" transform="matrix( 1 0 0 1 298 -24 )"><g id="node_expander_23" transform="translate( -16 0 )" style="cursor: pointer;" display="none"><path id="kity_path_760" fill="white" stroke="gray" d="M6,0A6,6,0,1,1,-6,0A6,6,0,1,1,6,0"></path><path id="kity_path_761" fill="none" stroke="gray"></path></g><path id="node_outline_24" fill="transparent" stroke="none" d="M-5,-11h84a5,5,0,0,1,5,5v12a5,5,0,0,1,-5,5h-84a5,5,0,0,1,-5,-5v-12a5,5,0,0,1,5,-5z"></path><g id="node_text_24" transform="translate( 0 -1.7999999999999998 )" fill="white" style="cursor: default;"><text id="kity_text_757" text-rendering="inherit" dominant-baseline="text-before-edge" dy="0" font-size="14" y="-6">纸机机检数据</text></g></g><g id="minder_node_722" transform="matrix( 1 0 0 1 375 40 )"><g id="node_expander_26" transform="translate( -16 0 )" style="cursor: pointer;" display="none"><path id="kity_path_945" fill="white" stroke="gray" d="M6,0A6,6,0,1,1,-6,0A6,6,0,1,1,6,0"></path><path id="kity_path_946" fill="none" stroke="gray"></path></g><path id="node_outline_27" fill="transparent" stroke="none" d="M-5,-11h83a5,5,0,0,1,5,5v12a5,5,0,0,1,-5,5h-83a5,5,0,0,1,-5,-5v-12a5,5,0,0,1,5,-5z"></path><g id="node_text_27" transform="translate( 0 -1.7999999999999998 )" fill="white" style="cursor: default;"><text id="kity_text_942" text-rendering="inherit" dominant-baseline="text-before-edge" dy="0" font-size="14" y="-6">生产原始记录</text></g></g><g id="minder_node_1" transform="matrix( 1 0 0 1 0 0 )"><path id="kity_path_158" fill="rgba(0, 0, 0, .25)" stroke="none" d="M1,-17h150a22,22,0,0,1,22,22v0a22,22,0,0,1,-22,22h-150a22,22,0,0,1,-22,-22v0a22,22,0,0,1,22,-22z"></path><path id="node_outline_1" fill="#e9df98" stroke="#e9df98" d="M-3,-22h150a22,22,0,0,1,22,22v0a22,22,0,0,1,-22,22h-150a22,22,0,0,1,-22,-22v0a22,22,0,0,1,22,-22z" stroke-width="3"></path><g id="node_text_1" transform="translate( 0 -3.5999999999999996 )" fill="#430" style="cursor: default;"><text id="kity_text_23" text-rendering="inherit" dominant-baseline="text-before-edge" dy="0" font-size="24" y="-12">钞纸质量数据</text></g></g><g id="kity_g_15" display="none"><path id="kity_path_16" fill="none" stroke="yellow" d="M-195,21h48a5,5,0,0,1,5,5v12a5,5,0,0,1,-5,5h-48a5,5,0,0,1,-5,-5v-12a5,5,0,0,1,5,-5z" stroke-width="2"></path></g></g></g></svg>